<svg width="181" height="17" viewBox="0 0 181 17" fill="none" xmlns="http://www.w3.org/2000/svg">
<path d="M181 16.941C174.967 16.941 172.002 13.0324 169.143 9.25502C166.441 5.71372 163.897 2.35604 158.86 2.35604C153.824 2.35604 151.279 5.71372 148.577 9.28125C145.718 13.0586 142.754 16.9672 136.747 16.9672C130.74 16.9672 127.775 13.0586 124.916 9.28125C122.214 5.71372 119.67 2.35604 114.633 2.35604C109.597 2.35604 107.052 5.71372 104.35 9.25502C101.491 13.0324 98.5268 16.941 92.4935 16.941C86.4602 16.941 83.4697 13.0324 80.6105 9.25502C77.9348 5.71372 75.3903 2.35604 70.3276 2.35604C69.8292 2.35604 69.3045 2.38227 68.8061 2.46096C66.9961 2.72328 65.291 3.5627 63.7696 4.92676C62.3793 6.15966 61.2251 7.70734 60.0971 9.17633L59.861 9.46488C58.838 10.8027 57.9986 11.852 57.0805 12.8226C55.7689 14.1866 54.431 15.1834 53.0408 15.8655C50.9422 16.8885 49.0273 17.1771 47.296 16.7049C46.2992 16.4426 45.381 15.9179 44.5941 15.2359C43.7809 14.5014 43.2825 13.5833 42.8366 12.7701C42.3644 11.8782 41.9709 11.0126 41.6299 10.1469L41.1315 8.88778C40.6331 7.62865 40.1609 6.42198 39.5576 5.29401C38.4821 3.27415 37.4066 2.35604 36.1474 2.35604C33.7866 2.35604 32.4487 5.60879 31.0322 9.04517C29.4321 12.9275 27.7795 16.9672 24.107 16.9672C20.4345 16.9672 18.7557 12.9537 17.1555 9.04517C15.739 5.60879 14.4274 2.35604 12.0666 2.35604C9.70569 2.35604 8.36786 5.60879 6.95134 9.04517C5.3512 12.9275 3.69859 16.9672 0.026123 16.9672V14.9998C2.38699 14.9998 3.72482 11.7471 5.14134 8.31067C6.74149 4.42836 8.39409 0.388645 12.0666 0.388645C15.739 0.388645 17.3916 4.40212 18.9655 8.31067C20.3821 11.7471 21.6937 14.9998 24.0545 14.9998C26.4154 14.9998 27.8057 11.7471 29.2222 8.31067C30.8224 4.42836 32.475 0.388645 36.1474 0.388645C39.1641 0.388645 40.7642 3.37908 41.2889 4.37589C41.9447 5.60879 42.4693 6.92038 42.9677 8.17952L43.4661 9.41241C43.7809 10.2256 44.1481 11.0126 44.5679 11.7733C45.0138 12.5865 45.381 13.2685 45.9319 13.7669C46.4828 14.2653 47.1386 14.6063 47.8206 14.79C49.0535 15.131 50.5225 14.8949 52.2013 14.0817C53.3818 13.5046 54.536 12.6389 55.6902 11.4323C56.5558 10.5142 57.3428 9.54357 58.2609 8.33691L58.5494 7.94343C59.7299 6.36952 60.9628 4.76937 62.4842 3.40531C64.268 1.80517 66.3666 0.782124 68.5438 0.467341C69.1471 0.388645 69.7505 0.336182 70.3276 0.336182C76.3609 0.336182 79.2989 4.24473 82.1581 8.02212C84.8338 11.5634 87.3783 14.9211 92.4148 14.9211C97.4513 14.9211 100.048 11.5634 102.75 8.02212C105.609 4.24473 108.574 0.336182 114.607 0.336182C120.64 0.336182 123.605 4.24473 126.464 8.02212C129.166 11.5634 131.71 14.9211 136.747 14.9473C141.783 14.9473 144.328 11.5897 147.003 8.02212C149.863 4.24473 152.827 0.336182 158.86 0.336182C164.894 0.336182 167.858 4.24473 170.717 8.02212C173.419 11.5634 175.963 14.9473 181 14.9473V16.9147V16.941Z" fill="#EBEBEC"/>
</svg>
